#!OML:ASF E:\basketball\basketball\Project 1\Capture day 1\Session 1\Subject.ASF
:FULLY-SPECIFIED
:DEGREES
106
root 29.2264 16.0993 3.15933 16.1224 64.2239 9.30849
lowerback 9.85139 5.99259 3.25262
upperback 4.16278 8.36404 2.2476
thorax -1.02272 4.22333 -0.34953
lowerneck -1.90858 -6.29206 -9.45555
upperneck -6.71381 -7.43585 18.4309
head -0.49475 -3.72976 7.10012
rclavicle -6.91771e-014 3.49861e-014
rhumerus 20.2018 53.1386 -62.5807
rradius 44.6502
rwrist 15.193
rhand 31.0027 9.8586
rfingers 7.12502
rthumb 54.6061 -8.5612
lclavicle -6.91771e-014 3.49861e-014
lhumerus -62.2869 -10.4869 92.7879
lradius 72.6235
lwrist 31.4524
lhand -24.3234 36.46
lfingers 7.12502
lthumb 2.16507 66.4287
rfemur 3.41453 -16.025 23.9842
rtibia 30.5604
rfoot -6.57878 0.920318
rtoes -1.6511
lfemur -37.3929 5.75153 -19.1716
ltibia 94.1615
lfoot -3.58671 4.33545
ltoes -32.8781
107
root 29.7796 16.1705 3.42444 15.6068 64.5254 8.64737
lowerback 8.80217 6.30632 3.36636
upperback 4.4601 8.73418 2.19669
thorax -0.107136 4.42977 -0.341783
lowerneck -1.91839 -6.80848 -9.56341
upperneck -6.27841 -8.18191 18.9504
head -0.229017 -4.09108 7.24009
rclavicle -2.14687e-014 3.65764e-014
rhumerus 21.2622 56.6331 -61.1438
rradius 37.9761
rwrist 10.7968
rhand 30.1627 10.6771
rfingers 7.12502
rthumb 53.8531 -8.25972
lclavicle -2.14687e-014 3.65764e-014
lhumerus -62.8656 -10.7066 93.4902
lradius 74.1923
lwrist 31.2329
lhand -23.9909 36.5883
lfingers 7.12502
lthumb 2.48619 66.5536
rfemur 6.5348 -14.7117 23.5969
rtibia 28.1176
rfoot -3.08852 0.493303
rtoes -0.0829394
lfemur -38.8846 3.78861 -19.8538
ltibia 90.0816
lfoot -3.57467 2.98286
ltoes -31.9973
108
root 30.3272 16.2136 3.66703 15.1099 65.4559 8.56312
lowerback 8.51261 6.42882 3.8353
upperback 4.75973 8.9131 2.05183
thorax 0.463254 4.54477 -0.685932
lowerneck -2.17635 -7.36284 -9.6915
upperneck -5.54043 -9.01159 19.4751
head 0.183207 -4.46888 7.35889
rclavicle 5.08889e-014 4.13472e-014
rhumerus 21.6356 60.4828 -59.7889
rradius 33.2004
rwrist 4.29268
rhand 30.5526 11.0815
rfingers 7.12502
rthumb 54.2031 -7.6183
lclavicle 5.08889e-014 4.13472e-014
lhumerus -63.4201 -11.3849 94.201
lradius 75.7768
lwrist 31.0659
lhand -23.5921 36.4476
lfingers 7.12502
lthumb 2.87127 66.408
rfemur 10.0616 -13.7952 23.1496
rtibia 25.9739
rfoot -0.705276 -1.19885
rtoes 4.97827
lfemur -39.739 1.36337 -20.5566
ltibia 85.7934
lfoot -3.43387 1.82965
ltoes -32.4194
109
root 30.8782 16.2902 3.95614 13.1108 66.0358 6.33365
lowerback 7.87472 6.84941 4.51466
upperback 4.87867 9.48253 2.14835
thorax 1.05386 4.85457 -0.881212
lowerneck -2.63615 -8.13339 -10.0583
upperneck -4.65074 -10.1445 20.4449
head 0.76762 -4.97223 7.62022
rclavicle -5.08889e-014 -1.11319e-014
rhumerus 21.05 63.9515 -59.162
rradius 30.026
rwrist -1.80317
rhand 31.3102 10.9437
rfingers 7.12502
rthumb 54.8809 -7.28081
lclavicle -5.08889e-014 -1.11319e-014
lhumerus -63.8887 -12.2131 94.884
lradius 77.3631
lwrist 30.5052
lhand -23.0787 35.7614
lfingers 7.12502
lthumb 3.36711 65.7145
rfemur 12.9388 -12.2754 23.9796
rtibia 24.5428
rfoot -0.305335 -4.3767
rtoes 7.16075
lfemur -40.596 0.177777 -20.0641
ltibia 81.0754
lfoot -3.10312 0.341881
ltoes -33.3265
110
root 31.4179 16.3322 4.22649 10.455 66.7649 3.20683
lowerback 7.20199 7.24473 5.59824
upperback 4.87944 10.0316 2.32562
thorax 1.60844 5.16189 -1.19032
lowerneck -3.10346 -8.96554 -10.0743
upperneck -3.83526 -11.3829 20.6937
head 1.2896 -5.53074 7.57348
rclavicle 1.28812e-013 -3.18055e-015
rhumerus 13.003 61.1499 -67.1815
rradius 27.0495
rwrist 0.546546
rhand 33.3052 10.3894
rfingers 7.12502
rthumb 56.6514 -6.48343
lclavicle 1.28812e-013 -3.18055e-015
lhumerus -64.4314 -13.0453 95.5667
lradius 79.1284
lwrist 29.546
lhand -22.4711 34.443
lfingers 7.12502
lthumb 3.95383 64.3861
rfemur 15.6085 -11.4488 25.3468
rtibia 23.6495
rfoot -0.461706 -8.44077
rtoes 0.782116
lfemur -41.8042 -0.730017 -19.1863
ltibia 76.3081
lfoot -2.28599 -1.02983
ltoes -32.6336
111
root 31.9336 16.3833 4.50398 9.63913 67.0782 2.6187
lowerback 7.54953 7.78444 5.53615
upperback 4.89554 10.769 2.30629
thorax 1.47438 5.5269 -1.25066
lowerneck -1.7155 -9.51981 -10.7547
upperneck -4.62344 -12.0949 21.8291
head 1.0747 -5.97997 8.07563
rclavicle -4.13472e-014 -6.36111e-015
rhumerus 5.20686 54.6283 -75.0594
rradius 24.1864
rwrist 6.94361
rhand 33.4011 10.6501
rfingers 7.12502
rthumb 56.736 -6.15377
lclavicle -4.13472e-014 -6.36111e-015
lhumerus -65.162 -14.057 96.3646
lradius 81.1945
lwrist 28.4071
lhand -21.8315 32.4718
lfingers 7.12502
lthumb 4.5715 62.4025
rfemur 18.431 -11.0083 25.2742
rtibia 23.2555
rfoot -0.358143 -12.3116
rtoes 1.54699
lfemur -42.0109 -1.20647 -19.4553
ltibia 70.9098
lfoot -1.4457 -1.98049
ltoes -30.9152
112
root 32.4867 16.4219 4.78548 8.24872 67.3411 1.155
lowerback 7.32845 8.37997 5.88894
upperback 4.7284 11.5687 2.38091
thorax 1.5272 5.92877 -1.35886
lowerneck 0.0703011 -10.0059 -11.5935
upperneck -5.65849 -12.7144 22.9507
head 0.731092 -6.42313 8.64737
rclavicle 1.12512e-013 7.95139e-015
rhumerus -0.7285 45.1885 -80.7426
rradius 21.8148
rwrist 16.2073
rhand 32.3778 11.98
rfingers 7.12502
rthumb 55.8311 -5.53998
lclavicle 1.12512e-013 7.95139e-015
lhumerus -66.4287 -14.9856 97.2902
lradius 83.6425
lwrist 27.1317
lhand -20.9607 30.7413
lfingers 7.12502
lthumb 5.41232 60.6522
rfemur 21.067 -11.234 25.0635
rtibia 23.1291
rfoot 0.488407 -14.4393
rtoes -1.57323
lfemur -42.024 -1.31814 -19.5051
ltibia 65.3235
lfoot -0.633172 -2.5809
ltoes -28.3154
113
root 33.0534 16.4576 5.06973 6.55812 67.5276 -0.717994
lowerback 6.88072 8.75624 6.17275
upperback 4.7865 12.0511 2.49158
thorax 1.90106 6.18429 -1.31641
lowerneck 0.442756 -10.4194 -11.9416
upperneck -6.05219 -13.2427 23.6519
head 0.736474 -6.72128 8.91904
rclavicle 5.36719e-014 -2.8625e-014
rhumerus -3.79463 37.2738 -83.3583
rradius 20.6231
rwrist 23.703
rhand 30.3812 13.3446
rfingers 7.12502
rthumb 54.0493 -5.46002
lclavicle 5.36719e-014 -2.8625e-014
lhumerus -67.2432 -15.0946 97.8155
lradius 86.1824
lwrist 25.5674
lhand -20.2 29.156
lfingers 7.12502
lthumb 6.14669 59.0468
rfemur 23.7258 -10.6735 25.4619
rtibia 22.8419
rfoot 0.530019 -16.1411
rtoes -0.238839
lfemur -41.8629 -1.0931 -19.5131
ltibia 59.5304
lfoot 0.424308 -3.40883
ltoes -27.181
114
root 33.6216 16.4906 5.34855 4.32129 67.6535 -3.36459
lowerback 6.30877 8.98656 6.63181
upperback 4.75532 12.339 2.74037
thorax 2.24479 6.34218 -1.20207
lowerneck -0.0981306 -10.5488 -11.4701
upperneck -5.71478 -13.428 23.334
head 0.894513 -6.76968 8.68071
rclavicle 1.04958e-013 -2.22639e-014
rhumerus -6.28503 32.4271 -84.6525
rradius 20.6713
rwrist 27.6843
rhand 27.5291 14.4576
rfingers 7.12502
rthumb 51.4724 -5.9563
lclavicle 1.04958e-013 -2.22639e-014
lhumerus -68.1848 -14.4603 98.3636
lradius 88.6774
lwrist 23.7243
lhand -19.5917 27.1884
lfingers 7.12502
lthumb 6.73399 57.0613
rfemur 25.9871 -11.1636 25.6133
rtibia 22.6503
rfoot 4.04384 -15.1451
rtoes -17.0696
lfemur -41.7005 -0.582347 -19.2786
ltibia 53.6139
lfoot 1.39095 -4.49073
ltoes -27.6208
